<?xml version="1.0" encoding="UTF-8" standalone="no"?>
<svg
   xmlns:dc="http://purl.org/dc/elements/1.1/"
   xmlns:cc="http://creativecommons.org/ns#"
   xmlns:rdf="http://www.w3.org/1999/02/22-rdf-syntax-ns#"
   xmlns:svg="http://www.w3.org/2000/svg"
   xmlns="http://www.w3.org/2000/svg"
   xmlns:sodipodi="http://sodipodi.sourceforge.net/DTD/sodipodi-0.dtd"
   xmlns:inkscape="http://www.inkscape.org/namespaces/inkscape"
   width="1024"
   height="1024"
   viewBox="0 0 270.92992 270.92992"
   version="1.1"
   id="svg16"
   inkscape:export-filename="/home/p2kmgcl/asd.png"
   inkscape:export-xdpi="96"
   inkscape:export-ydpi="96"
   inkscape:version="1.0.2 (e86c870879, 2021-01-15)"
   sodipodi:docname="icon.svg">
  <defs
     id="defs10" />
  <sodipodi:namedview
     id="base"
     pagecolor="#ffffff"
     bordercolor="#666666"
     borderopacity="1.0"
     inkscape:pageopacity="0.0"
     inkscape:pageshadow="2"
     inkscape:zoom="0.35355339"
     inkscape:cx="744.66629"
     inkscape:cy="775.34063"
     inkscape:document-units="px"
     inkscape:current-layer="layer1"
     inkscape:document-rotation="0"
     showgrid="true"
     units="px"
     inkscape:pagecheckerboard="false"
     inkscape:showpageshadow="false"
     showguides="false"
     inkscape:guide-bbox="true"
     inkscape:window-width="1428"
     inkscape:window-height="1011"
     inkscape:window-x="246"
     inkscape:window-y="32"
     inkscape:window-maximized="0">
    <inkscape:grid
       type="xygrid"
       id="grid18"
       spacingx="2.11664"
       spacingy="2.11664"
       color="#3f3fff"
       opacity="0.0745098"
       empcolor="#3f3fff"
       empopacity="0.15294118"
       empspacing="8"
       dotted="false"
       snapvisiblegridlinesonly="true" />
    <sodipodi:guide
       position="135.46496,287.86304"
       orientation="1,0"
       id="guide34" />
    <sodipodi:guide
       position="-16.93312,135.46496"
       orientation="0,-1"
       id="guide36" />
  </sodipodi:namedview>
  <metadata
     id="metadata13">
    <rdf:RDF>
      <cc:Work
         rdf:about="">
        <dc:format>image/svg+xml</dc:format>
        <dc:type
           rdf:resource="http://purl.org/dc/dcmitype/StillImage" />
        <dc:title />
      </cc:Work>
    </rdf:RDF>
  </metadata>
  <g
     inkscape:label="Layer 1"
     inkscape:groupmode="layer"
     id="layer1">
    <rect
       style="fill:#000000;fill-opacity:1;stroke-width:2.6458;stroke-linecap:round;stroke-linejoin:round;paint-order:markers fill stroke"
       id="rect840-3-6-7-5"
       width="270.9299"
       height="270.92993"
       x="2.6152344e-05"
       y="0" />
    <path
       style="fill:#fdea7b;fill-opacity:1;stroke:none;stroke-width:11.9266;stroke-linecap:round;stroke-linejoin:round;stroke-miterlimit:4;stroke-dasharray:none;stroke-opacity:1;paint-order:markers fill stroke"
       d="m -36.335874,56.48628 c 113.26627,-69.177007 302.266834,-2.05509 333.945624,125.22961 1.46507,8.84646 -0.58723,-3.54054 -5.96331,5.96331 -25.35491,44.82247 -161.03919,82.09455 -238.532594,32.79823 -77.4934,-49.29632 -75.11813,-155.01772 -68.57812,-172.93612 z"
       id="iris-top-right"
       sodipodi:nodetypes="ccczcc" />
    <path
       style="fill:#ffb679;fill-opacity:1;stroke:none;stroke-width:0.372707px;stroke-linecap:butt;stroke-linejoin:miter;stroke-opacity:1"
       d="M -8.463159,144.9785 C 10.28573,135.28255 81.64981,117.37013 125.71142,127.08856 176.32953,138.25313 247.95937,186.72171 256.90435,210.57497 200.25286,243.3732 45.206674,276.17143 -8.463159,144.9785 Z"
       id="iris-bottom-right"
       sodipodi:nodetypes="cacc" />
    <path
       id="iris-top-left"
       style="fill:#fdea7b;fill-opacity:1;stroke:none;stroke-width:45.0775;stroke-linecap:round;stroke-linejoin:round;stroke-miterlimit:4;stroke-dasharray:none;stroke-opacity:1;paint-order:markers fill stroke"
       d="M 255.19922 113.875 C 113.34583 114.21716 -25.113724 147.19267 -142.17188 218.68555 L -63.287109 184.87695 C -88.005569 252.60089 -96.981975 652.18281 195.91016 838.50195 C 265.89148 883.01957 348.43085 908.84652 434.83594 920.08008 L 515.28125 148.57227 C 430.06586 125.69185 341.99942 113.66563 255.19922 113.875 z "
       transform="scale(0.26458)" />
    <path
       id="iris-bottom-left"
       style="fill:#ffb679;fill-opacity:1;stroke:none;stroke-width:1.40867px;stroke-linecap:butt;stroke-linejoin:miter;stroke-opacity:1"
       d="M 361.40039 469.79102 C 205.21839 469.87399 22.468822 518.79726 -34 548 C 62.906648 784.88294 247.25963 880.30261 436.73633 901.84961 L 480.50586 482.08594 C 478.03531 481.50102 475.56831 480.92215 473.12305 480.38281 C 439.29579 472.92172 401.21149 469.76986 361.40039 469.79102 z "
       transform="scale(0.26458)" />
    <path
       style="fill:#000000;fill-opacity:1;stroke:#000000;stroke-width:0.297152px;stroke-linecap:butt;stroke-linejoin:miter;stroke-opacity:1"
       d="m 95.2488,31.7496 c -23.698415,103.99572 7.94682,171.00988 22.20002,174.64446 18.99823,4.84457 59.68493,-85.76496 53.99902,-151.36142 C 150.47587,38.839792 123.11952,32.843947 95.2488,31.7496 Z"
       id="pupil"
       sodipodi:nodetypes="cscc" />
    <path
       style="fill:#ffffff;fill-opacity:1;stroke:#000000;stroke-width:0.372707px;stroke-linecap:butt;stroke-linejoin:miter;stroke-opacity:1"
       d="M 117.76611,50.529025 C 130.33131,52.933732 115.91737,108.70341 105.832,112.18192 91.94529,97.50843 100.95237,50.866292 117.76611,50.529025 Z"
       id="pupil-light"
       sodipodi:nodetypes="ccc" />
    <path
       style="fill:none;fill-opacity:1;stroke:#000000;stroke-width:11.9266;stroke-linecap:round;stroke-linejoin:round;stroke-miterlimit:4;stroke-dasharray:none;stroke-opacity:1;paint-order:markers fill stroke"
       d="M -40.954209,55.988794 C 72.31206,-13.188211 261.31261,53.93371 292.99141,181.21841 c 1.46506,8.84646 -0.58723,-3.54053 -5.96331,5.96331 C 261.67319,232.00419 125.9889,269.27628 48.495512,219.97996 -28.997886,170.68364 -26.622618,64.962224 -20.082607,47.043821 Z"
       id="eye-border"
       sodipodi:nodetypes="ccczcc" />
  </g>
</svg>
